<svg xmlns="http://www.w3.org/2000/svg" viewBox="0 0 24 24" shape-rendering="crispEdges"><rect x="6" y="1" width="5" height="1" fill="#303e51"/><rect x="15" y="1" width="3" height="1" fill="#303e51"/><rect x="5" y="2" width="1" height="1" fill="#303e51"/><rect x="6" y="2" width="5" height="1" fill="#9aaac4"/><rect x="11" y="2" width="4" height="1" fill="#303e51"/><rect x="15" y="2" width="2" height="1" fill="#9aaac4"/><rect x="17" y="2" width="1" height="1" fill="#71829d"/><rect x="18" y="2" width="2" height="1" fill="#303e51"/><rect x="4" y="3" width="1" height="1" fill="#303e51"/><rect x="5" y="3" width="12" height="1" fill="#9aaac4"/><rect x="17" y="3" width="3" height="1" fill="#71829d"/><rect x="20" y="3" width="1" height="1" fill="#303e51"/><rect x="3" y="4" width="1" height="1" fill="#303e51"/><rect x="4" y="4" width="13" height="1" fill="#9aaac4"/><rect x="17" y="4" width="4" height="1" fill="#71829d"/><rect x="21" y="4" width="1" height="1" fill="#303e51"/><rect x="1" y="5" width="2" height="1" fill="#303e51"/><rect x="3" y="5" width="14" height="1" fill="#9aaac4"/><rect x="17" y="5" width="5" height="1" fill="#71829d"/><rect x="22" y="5" width="1" height="1" fill="#303e51"/><rect x="0" y="6" width="1" height="1" fill="#303e51"/><rect x="1" y="6" width="16" height="1" fill="#9aaac4"/><rect x="17" y="6" width="6" height="1" fill="#71829d"/><rect x="23" y="6" width="1" height="1" fill="#303e51"/><rect x="0" y="7" width="1" height="1" fill="#303e51"/><rect x="1" y="7" width="22" height="1" fill="#71829d"/><rect x="23" y="7" width="1" height="1" fill="#303e51"/><rect x="0" y="8" width="1" height="1" fill="#303e51"/><rect x="1" y="8" width="22" height="1" fill="#71829d"/><rect x="23" y="8" width="1" height="1" fill="#303e51"/><rect x="0" y="9" width="1" height="1" fill="#303e51"/><rect x="1" y="9" width="22" height="1" fill="#71829d"/><rect x="23" y="9" width="1" height="1" fill="#303e51"/><rect x="1" y="10" width="1" height="1" fill="#303e51"/><rect x="2" y="10" width="20" height="1" fill="#4c5d78"/><rect x="22" y="10" width="1" height="1" fill="#303e51"/><rect x="2" y="11" width="2" height="1" fill="#303e51"/><rect x="4" y="11" width="16" height="1" fill="#4c5d78"/><rect x="20" y="11" width="2" height="1" fill="#303e51"/><rect x="4" y="12" width="16" height="1" fill="#303e51"/><rect x="5" y="15" width="1" height="1" fill="#a8dcf1"/><rect x="6" y="15" width="1" height="1" fill="#244d69"/><rect x="19" y="15" width="1" height="1" fill="#a8dcf1"/><rect x="20" y="15" width="1" height="1" fill="#244d69"/><rect x="5" y="16" width="2" height="1" fill="#244d69"/><rect x="12" y="16" width="1" height="1" fill="#a8dcf1"/><rect x="13" y="16" width="1" height="1" fill="#244d69"/><rect x="19" y="16" width="2" height="1" fill="#244d69"/><rect x="4" y="17" width="2" height="1" fill="#5aa8d6"/><rect x="12" y="17" width="2" height="1" fill="#244d69"/><rect x="18" y="17" width="2" height="1" fill="#5aa8d6"/><rect x="4" y="18" width="1" height="1" fill="#244d69"/><rect x="5" y="18" width="1" height="1" fill="#5aa8d6"/><rect x="11" y="18" width="2" height="1" fill="#5aa8d6"/><rect x="18" y="18" width="1" height="1" fill="#244d69"/><rect x="19" y="18" width="1" height="1" fill="#5aa8d6"/><rect x="11" y="19" width="1" height="1" fill="#244d69"/><rect x="12" y="19" width="1" height="1" fill="#5aa8d6"/><rect x="8" y="20" width="1" height="1" fill="#a8dcf1"/><rect x="9" y="20" width="1" height="1" fill="#244d69"/><rect x="16" y="20" width="1" height="1" fill="#a8dcf1"/><rect x="17" y="20" width="1" height="1" fill="#244d69"/><rect x="8" y="21" width="2" height="1" fill="#244d69"/><rect x="16" y="21" width="2" height="1" fill="#244d69"/><rect x="7" y="22" width="2" height="1" fill="#5aa8d6"/><rect x="15" y="22" width="2" height="1" fill="#5aa8d6"/><rect x="7" y="23" width="1" height="1" fill="#244d69"/><rect x="8" y="23" width="1" height="1" fill="#5aa8d6"/><rect x="15" y="23" width="1" height="1" fill="#244d69"/><rect x="16" y="23" width="1" height="1" fill="#5aa8d6"/></svg>